<svg xmlns="http://www.w3.org/2000/svg" width="318.83618mm" height="318.83618mm" viewBox="0 0 318.83618 318.83618"><g style="stroke-width:.0814508"><g style="stroke-width:.0814508"><path d="M0 0c0-20.328-16.426-36.807-36.754-36.807S-73.614-20.328-73.614 0s16.532 36.807 36.86 36.807S0 20.328 0 0" style="fill:#d0d2d3;fill-opacity:1;fill-rule:nonzero;stroke:none;stroke-width:.0814508" transform="matrix(4.33119 0 0 -4.33119 318.836 159.418)"/></g><g style="stroke-width:.0814508"><path d="M0 0c-13.584 13.584-35.608 13.584-49.192 0s-13.584-35.608 0-49.192 35.608-13.584 49.192 0S13.584-13.584 0 0" style="fill:#003b90;fill-opacity:1;fill-rule:nonzero;stroke:none;stroke-width:.0814508" transform="matrix(4.33119 0 0 -4.33119 265.947 52.889)"/></g><g style="stroke-width:.0814508"><path d="m0 0 .078.625 2.311.955.001.008-2.156.271.069.55 2.966-.374-.077-.613L.88.454.879.447 3.035.176l-.069-.549Z" style="fill:#fff;fill-opacity:1;fill-rule:nonzero;stroke:none;stroke-width:.0814508" transform="matrix(4.33119 0 0 -4.33119 22.86 147.513)"/></g><g style="stroke-width:.0814508"><path d="m0 0 .21.654-.977-.043-.002-.008Zm-1.576.642.132.412 3.229.277L1.598.75.766.683.439-.337l.637-.539-.187-.581Z" style="fill:#fff;fill-opacity:1;fill-rule:nonzero;stroke:none;stroke-width:.0814508" transform="matrix(4.33119 0 0 -4.33119 35.501 121.377)"/></g><g style="stroke-width:.0814508"><path d="m0 0 .371.671 2.365-.4.004.007-1.597 1.785.372.672L4.13 1.286 3.861.802l-1.96 1.086-.006-.01L3.486.124l-.228-.41L.925.129.922.121l1.96-1.086-.267-.484Z" style="fill:#fff;fill-opacity:1;fill-rule:nonzero;stroke:none;stroke-width:.0814508" transform="matrix(4.33119 0 0 -4.33119 36.296 99.117)"/></g><g style="stroke-width:.0814508"><path d="M0 0a.6.6 0 0 1 .178-.081.371.371 0 0 1 .285.048Q.52.005.56.054a.432.432 0 0 1 .102.287.35.35 0 0 1-.133.27.4.4 0 0 1-.168.09.33.33 0 0 1-.167-.004A1 1 0 0 1 .006.618L-.222.489Q-.302.443-.418.38A.9.9 0 0 0-.677.289a.77.77 0 0 0-.661.193.83.83 0 0 0-.309.576.897.897 0 0 0 .417.83q.13.089.293.123a.9.9 0 0 0 .344.004.9.9 0 0 0 .368-.168l-.357-.438a.5.5 0 0 1-.154.073.3.3 0 0 1-.129.004.3.3 0 0 1-.106-.046.5.5 0 0 1-.083-.079.3.3 0 0 1-.072-.223.29.29 0 0 1 .112-.206.35.35 0 0 1 .146-.075.3.3 0 0 1 .146.009q.075.022.16.072.087.05.185.115.085.052.211.121.126.067.287.099.16.03.342-.006a.85.85 0 0 0 .369-.189 1 1 0 0 0 .274-.333.9.9 0 0 0 .088-.361A1 1 0 0 0 1.132.03a1.1 1.1 0 0 0-.174-.306 1.06 1.06 0 0 0-.556-.346.9.9 0 0 0-.375-.008.9.9 0 0 0-.395.179z" style="fill:#fff;fill-opacity:1;fill-rule:nonzero;stroke:none;stroke-width:.0814508" transform="matrix(4.33119 0 0 -4.33119 59.408 80.021)"/></g><g style="stroke-width:.0814508"><path d="m0 0 1.197 1.073.345-.384-.785-.704.489-.545.751.675.346-.385-.752-.674.472-.526.785.704.345-.385-1.196-1.073Z" style="fill:#fff;fill-opacity:1;fill-rule:nonzero;stroke:none;stroke-width:.0814508" transform="matrix(4.33119 0 0 -4.33119 65.35 59.855)"/></g><g style="stroke-width:.0814508"><path d="M0 0a1.03 1.03 0 0 1 .629-.463.99.99 0 0 1 1.068.395 1 1 0 0 1 .162.755 1 1 0 0 1-.142.376 1.03 1.03 0 0 1-.637.47 1 1 0 0 1-.391.021.9.9 0 0 1-.378-.136.95.95 0 0 1-.293-.278A1.05 1.05 0 0 1-.145.385Q-.113.183 0 0m-.469-.295A1.552 1.552 0 0 0-.411 1.44q.178.25.449.417.272.169.575.216t.595-.018a1.57 1.57 0 0 0 .983-.704q.17-.275.212-.579a1.55 1.55 0 0 0-.275-1.136 1.5 1.5 0 0 0-.453-.423 1.5 1.5 0 0 0-.581-.218 1.57 1.57 0 0 0-1.14.262 1.5 1.5 0 0 0-.423.448" style="fill:#fff;fill-opacity:1;fill-rule:nonzero;stroke:none;stroke-width:.0814508" transform="matrix(4.33119 0 0 -4.33119 86.927 50.906)"/></g><g style="stroke-width:.0814508"><path d="m0 0 .686-1.77q.02-.053.066-.148a.6.6 0 0 1 .128-.175.5.5 0 0 1 .21-.116.5.5 0 0 1 .307.034q.181.07.251.182a.5.5 0 0 1 .077.227.6.6 0 0 1-.024.216 3 3 0 0 1-.051.154L.965.373l.516.201.686-1.771a2 2 0 0 0 .1-.357.8.8 0 0 0-.008-.365 1.09 1.09 0 0 0-.672-.737 1.1 1.1 0 0 0-.582-.065 1.1 1.1 0 0 0-.401.144 1 1 0 0 0-.218.205 1.5 1.5 0 0 0-.216.402L-.516-.2z" style="fill:#fff;fill-opacity:1;fill-rule:nonzero;stroke:none;stroke-width:.0814508" transform="matrix(4.33119 0 0 -4.33119 107.736 32.651)"/></g><g style="stroke-width:.0814508"><path d="m0 0 .541.117.524-2.416.893.193.109-.504-1.433-.311Z" style="fill:#fff;fill-opacity:1;fill-rule:nonzero;stroke:none;stroke-width:.0814508" transform="matrix(4.33119 0 0 -4.33119 127.82 26.229)"/></g><g style="stroke-width:.0814508"><path d="m0 0-.124-1.895-.002-.161a.6.6 0 0 1 .043-.213.5.5 0 0 1 .141-.194.5.5 0 0 1 .294-.097.5.5 0 0 1 .303.058.5.5 0 0 1 .165.175q.055.1.071.205.014.105.018.161l.122 1.894.553-.035-.123-1.895a2 2 0 0 0-.058-.366.85.85 0 0 0-.161-.328 1.1 1.1 0 0 0-.377-.29 1.07 1.07 0 0 0-.543-.096 1.116 1.116 0 0 0-.858.485.9.9 0 0 0-.112.278 1.5 1.5 0 0 0-.027.455L-.553.036z" style="fill:#fff;fill-opacity:1;fill-rule:nonzero;stroke:none;stroke-width:.0814508" transform="matrix(4.33119 0 0 -4.33119 166.085 22.693)"/></g><g style="stroke-width:.0814508"><path d="m0 0 .612-.152.678-2.407.007-.001.523 2.109.537-.133-.719-2.901-.6.148-.689 2.41-.008.002-.522-2.11-.538.134z" style="fill:#fff;fill-opacity:1;fill-rule:nonzero;stroke:none;stroke-width:.0814508" transform="matrix(4.33119 0 0 -4.33119 187.165 25.283)"/></g><g style="stroke-width:.0814508"><path d="m0 0 .51-.215-1.155-2.756-.511.214z" style="fill:#fff;fill-opacity:1;fill-rule:nonzero;stroke:none;stroke-width:.0814508" transform="matrix(4.33119 0 0 -4.33119 211.077 32.683)"/></g><g style="stroke-width:.0814508"><path d="m0 0 .502-.294-.46-2.367.007-.004 1.844 1.556.501-.294-2.511-1.993-.391.228z" style="fill:#fff;fill-opacity:1;fill-rule:nonzero;stroke:none;stroke-width:.0814508" transform="matrix(4.33119 0 0 -4.33119 225.085 39.317)"/></g><g style="stroke-width:.0814508"><path d="m0 0 1.218-1.049-.337-.392-.799.688-.478-.554.766-.659-.338-.391-.765.658-.462-.535.799-.688-.337-.392-1.218 1.05z" style="fill:#fff;fill-opacity:1;fill-rule:nonzero;stroke:none;stroke-width:.0814508" transform="matrix(4.33119 0 0 -4.33119 246.229 53.58)"/></g><g style="stroke-width:.0814508"><path d="m0 0 .229-.272a.64.64 0 0 1 .215-.177.5.5 0 0 1 .199-.047q.091 0 .164.037a.6.6 0 0 1 .117.076.5.5 0 0 1 .093.107.4.4 0 0 1 .061.159.5.5 0 0 1-.016.201.6.6 0 0 1-.135.232L.698.588Zm.737 1.345.591-.702q.167-.197.239-.358a.86.86 0 0 0 .062-.504.86.86 0 0 0-.152-.382 1 1 0 0 0-.162-.177 1.064 1.064 0 0 0-.514-.235.8.8 0 0 0-.218-.006.7.7 0 0 0-.299.086Q.17-.866.075-.798l-.321-1.331-.432.513.365 1.342-.006.006-.873-.737-.357.424z" style="fill:#fff;fill-opacity:1;fill-rule:nonzero;stroke:none;stroke-width:.0814508" transform="matrix(4.33119 0 0 -4.33119 258.365 74.057)"/></g><g style="stroke-width:.0814508"><path d="M0 0a.6.6 0 0 1-.137-.141.36.36 0 0 1-.051-.283.45.45 0 0 1 .152-.241.4.4 0 0 1 .133-.073.4.4 0 0 1 .149-.017.432.432 0 0 1 .292.178.4.4 0 0 1 .053.159 1 1 0 0 1-.011.203L.535.043Q.518.133.499.264a.9.9 0 0 0 .002.275.77.77 0 0 0 .405.557.84.84 0 0 0 .647.096.88.88 0 0 0 .536-.409 1 1 0 0 0 .104-.265.85.85 0 0 0-.097-.642.9.9 0 0 0-.283-.29l-.29.485a.5.5 0 0 1 .121.119.3.3 0 0 1 .047.121.3.3 0 0 1-.008.115.5.5 0 0 1-.046.105.3.3 0 0 1-.185.143.3.3 0 0 1-.233-.036A.35.35 0 0 1 1.1.527a.3.3 0 0 1-.041-.14.7.7 0 0 1 .013-.176l.046-.214q.021-.096.042-.238a.906.906 0 0 0-.124-.624.9.9 0 0 0-.304-.283 1 1 0 0 0-.405-.145.84.84 0 0 0-.37.04.9.9 0 0 0-.312.177q-.14.119-.229.268-.075.125-.117.292a.93.93 0 0 0 .099.703q.098.175.303.312z" style="fill:#fff;fill-opacity:1;fill-rule:nonzero;stroke:none;stroke-width:.0814508" transform="matrix(4.33119 0 0 -4.33119 267.842 92.078)"/></g><g style="stroke-width:.0814508"><path d="m0 0 .217-.509-2.75-1.172-.218.509z" style="fill:#fff;fill-opacity:1;fill-rule:nonzero;stroke:none;stroke-width:.0814508" transform="matrix(4.33119 0 0 -4.33119 284.81 104.596)"/></g><g style="stroke-width:.0814508"><path d="m0 0-.149.533.498.139.448-1.603-.498-.139-.15.537-2.381-.665-.149.533Z" style="fill:#fff;fill-opacity:1;fill-rule:nonzero;stroke:none;stroke-width:.0814508" transform="matrix(4.33119 0 0 -4.33119 288.736 122.063)"/></g><g style="stroke-width:.0814508"><path d="m0 0 1.756 1.198.072-.602L.542-.212l1.442-.487.072-.605-1.99.754-1.095-.131-.066.55Z" style="fill:#fff;fill-opacity:1;fill-rule:nonzero;stroke:none;stroke-width:.0814508" transform="matrix(4.33119 0 0 -4.33119 287.063 143.075)"/></g><g style="stroke-width:.0814508"><path d="m0 0-.345.412-.797-.669-.292.349L.19 1.453l.292-.349-.516-.433L.31.26Zm-1.188.512a6 6 0 0 0-.529.465 7 7 0 0 0-.501.543l-.526.627 1.308 1.096.293-.348-.999-.837.234-.279q.24-.286.494-.54t.53-.473zM-2.397-.715l.546.458-1.062 1.268-.547-.457zm-.011-.603L-4.055.647l1.154.967 1.646-1.965z" style="fill:#fff;fill-opacity:1;fill-rule:nonzero;stroke:none;stroke-width:.0814508" transform="matrix(4.33119 0 0 -4.33119 66.833 247.21)"/></g><g style="stroke-width:.0814508"><path d="m0 0-.36.278 1.413 1.827-.609.47.257.334.61-.471.659.854.36-.279Zm.02 1.311-.402-.057a8 8 0 0 0-.119.693 7 7 0 0 0-.047.692 5.5 5.5 0 0 0-1.409-.215l-.061.404a4.9 4.9 0 0 1 1.416.284.6.6 0 0 1 .197.128q.095.089.169.185l.676.874.369-.286-.675-.873A1.2 1.2 0 0 1 0 2.919a.6.6 0 0 1-.067-.22 6 6 0 0 1-.003-.68q.021-.335.09-.708" style="fill:#fff;fill-opacity:1;fill-rule:nonzero;stroke:none;stroke-width:.0814508" transform="matrix(4.33119 0 0 -4.33119 79.103 273.185)"/></g><g style="stroke-width:.0814508"><path d="M0 0a.3.3 0 0 1 .028.18.4.4 0 0 1-.076.172.8.8 0 0 1-.164.157 1.3 1.3 0 0 1-.227.133 1.3 1.3 0 0 1-.249.092.7.7 0 0 1-.221.027.4.4 0 0 1-.18-.05.3.3 0 0 1-.121-.137.3.3 0 0 1-.029-.179.4.4 0 0 1 .076-.171.8.8 0 0 1 .158-.157q.098-.075.228-.136.125-.06.248-.09a.8.8 0 0 1 .226-.026.4.4 0 0 1 .182.049Q-.044-.091 0 0m.414-.197A.63.63 0 0 0 .201-.45a.8.8 0 0 0-.318-.124 1.1 1.1 0 0 0-.393.007 1.7 1.7 0 0 0-.435.143 1.8 1.8 0 0 0-.386.247q-.164.141-.254.3a.8.8 0 0 0-.104.325q-.015.166.06.325a.63.63 0 0 0 .214.254.8.8 0 0 0 .318.124q.18.031.393-.007A1.7 1.7 0 0 0-.269 1Q-.047.895.117.754.281.614.371.453A.8.8 0 0 0 .475.129a.6.6 0 0 0-.061-.326m.088-1.459-1.448.687-.116-.248 1.02-.484-.405-.853-2.054.975-.096-.205L-.47-2.795l-.161-.338-2.538 1.205.414.872 2.053-.975.089.186-2.054.975.161.339 1.022-.485.117.248-1.443.685.162.342L.664-1.313z" style="fill:#fff;fill-opacity:1;fill-rule:nonzero;stroke:none;stroke-width:.0814508" transform="matrix(4.33119 0 0 -4.33119 108.223 274.06)"/></g><g style="stroke-width:.0814508"><path d="m0 0-.428.099.471 2.036-.387.09L-.776.352l-.427.099.808 3.498.427-.099-.281-1.215.387-.089L.43 3.81l.427-.098Zm-1.172 1.313a5.4 5.4 0 0 0-.937.13l-.659.153.598 2.586 1.465-.338-.089-.386-1.03.238-.42-1.815.224-.052a6 6 0 0 1 .935-.138z" style="fill:#fff;fill-opacity:1;fill-rule:nonzero;stroke:none;stroke-width:.0814508" transform="matrix(4.33119 0 0 -4.33119 134.4 296.427)"/></g><g style="stroke-width:.0814508"><path d="m0 0-.536.005-.009-.914L-1-.905l.021 2.288.455-.004L-.533.41.004.405Zm-1.928.178a.5.5 0 0 1-.039.218.452.452 0 0 1-.262.257.5.5 0 0 1-.185.035l-.021.001a.6.6 0 0 1-.195-.03.435.435 0 0 1-.278-.251.5.5 0 0 1-.043-.221.6.6 0 0 1 .038-.223.46.46 0 0 1 .274-.264.58.58 0 0 1 .389-.003.46.46 0 0 1 .277.258.6.6 0 0 1 .045.223M-.559-2.43l-.455.004.009.969-2.151.02.005.404 2.604-.023zM-1.28.678l-.376.004a.808.808 0 0 0 .183-.529A.85.85 0 0 0-1.55-.2a.9.9 0 0 0-.205-.283.9.9 0 0 0-.31-.184 1 1 0 0 0-.384-.064 1.1 1.1 0 0 0-.381.071.874.874 0 0 0-.525 1.117.9.9 0 0 0 .142.239L-3.606.7l.003.396.938-.009.003.379.468-.004-.004-.379.922-.009Z" style="fill:#fff;fill-opacity:1;fill-rule:nonzero;stroke:none;stroke-width:.0814508" transform="matrix(4.33119 0 0 -4.33119 166.119 288.043)"/></g><g style="stroke-width:.0814508"><path d="m0 0-3.587-.755-.082.391.825.175-.262 1.245.449.094.262-1.245.506.106-.263 1.246.449.094.262-1.245 1.359.286zm-1.052 2.969a22 22 0 0 0 .225-1.754q.022-.273.032-.517l-.429-.09q-.025.477-.075.972-.05.496-.122.899l-2.288-.483-.084.396Z" style="fill:#fff;fill-opacity:1;fill-rule:nonzero;stroke:none;stroke-width:.0814508" transform="matrix(4.33119 0 0 -4.33119 195.122 291.88)"/></g><g style="stroke-width:.0814508"><path d="m0 0-.336-.169-.229.454.814.412L1.6-1.97l-.48-.243Z" style="fill:#fff;fill-opacity:1;fill-rule:nonzero;stroke:none;stroke-width:.0814508" transform="matrix(4.33119 0 0 -4.33119 215.371 272.262)"/></g><g style="stroke-width:.0814508"><path d="M0 0a.55.55 0 0 1-.53.238.45.45 0 0 1-.185-.076.47.47 0 0 1-.21-.354.54.54 0 0 1 .092-.358.6.6 0 0 1 .149-.153.487.487 0 0 1 .563.004.44.44 0 0 1 .148.161A.52.52 0 0 1 0 0m.173-2.307L.145-1.1a.3.3 0 0 0-.051-.047l-.061-.045a.8.8 0 0 0-.3-.123.9.9 0 0 0-.346-.001.991.991 0 0 0-.636.423 1.1 1.1 0 0 0-.183.816q.038.198.147.369a1 1 0 0 0 .277.287q.168.114.364.16.196.045.394.011.197-.032.381-.147Q.316.49.454.287a1.1 1.1 0 0 0 .19-.535Q.656-.34.657-.433L.691-1.95Z" style="fill:#fff;fill-opacity:1;fill-rule:nonzero;stroke:none;stroke-width:.0814508" transform="matrix(4.33119 0 0 -4.33119 233.706 263.69)"/></g><g style="stroke-width:.0814508"><path d="M0 0a.56.56 0 0 1-.362.185.474.474 0 0 1-.368-.12.494.494 0 0 1-.119-.566.597.597 0 0 1 .266-.287.5.5 0 0 1 .188-.054.506.506 0 0 1 .494.312A.52.52 0 0 1 0 0m.48-2.264L.291-1.071a.4.4 0 0 0-.044-.054l-.056-.052a.8.8 0 0 0-.28-.163.9.9 0 0 0-.343-.047.992.992 0 0 0-.686.335 1.08 1.08 0 0 0-.29.785q.011.201.096.384.084.184.237.322A1.03 1.03 0 0 0 .051.615 1.1 1.1 0 0 0 .52.204Q.571.123.612.023a1.6 1.6 0 0 0 .097-.364L.946-1.84Z" style="fill:#fff;fill-opacity:1;fill-rule:nonzero;stroke:none;stroke-width:.0814508" transform="matrix(4.33119 0 0 -4.33119 246.974 252.792)"/></g><g style="stroke-width:.0814508"><path d="m0 0-.859.723-.006-.007.407-1.26zm-1.501 1.373.291.346L.346.411l.202.241.39-.327L.735.084l.343-.289-.345-.411-.344.289-.829-.986-.336.283Z" style="fill:#fff;fill-opacity:1;fill-rule:nonzero;stroke:none;stroke-width:.0814508" transform="matrix(4.33119 0 0 -4.33119 261.39 243.999)"/></g><g style="stroke-width:.0814508"><path d="M0 0c0-14.243-11.509-25.789-25.752-25.789S-51.578-14.243-51.578 0s11.584 25.789 25.826 25.789S0 14.243 0 0" style="fill:#d0d2d3;fill-opacity:1;fill-rule:nonzero;stroke:none;stroke-width:.0814508" transform="matrix(4.33119 0 0 -4.33119 271.114 159.418)"/></g><g style="stroke-width:.0814508"><path d="M0 0c0-12.918-10.439-23.391-23.357-23.391S-46.781-12.918-46.781 0s10.506 23.391 23.424 23.391S0 12.918 0 0" style="fill:#fff;fill-opacity:1;fill-rule:nonzero;stroke:none;stroke-width:.0814508" transform="matrix(4.33119 0 0 -4.33119 260.726 159.418)"/></g><g style="stroke-width:.0814508"><path d="M0 0h-13.843v13.841h4.74V4.724h4.364v9.117H0Z" style="fill:#62c0b4;fill-opacity:1;fill-rule:nonzero;stroke:none;stroke-width:.0814508" transform="matrix(4.33119 0 0 -4.33119 228.796 219.338)"/></g><g style="stroke-width:.0814508"><path d="M0 0v4.738h-13.847v-9.105h-.004v-4.739h9.117v-4.363h-9.117v-4.74H-.01v9.104h.004v4.741h-9.118V0Z" style="fill:#009bb4;fill-opacity:1;fill-rule:nonzero;stroke:none;stroke-width:.0814508" transform="matrix(4.33119 0 0 -4.33119 150.03 140.464)"/></g><g style="stroke-width:.0814508"><path d="M0 0h-13.841v-13.842h4.739v9.119h4.363v-9.119H0Z" style="fill:#003b90;fill-opacity:1;fill-rule:nonzero;stroke:none;stroke-width:.0814508" transform="matrix(4.33119 0 0 -4.33119 189.451 80.545)"/></g><g style="stroke-width:.0814508"><path d="m0 0-.359-.111-.325 1.05-.102.331-.111.36.298.092 1.442.445.324-1.05-.69-.213.214-.691z" style="fill:#00b3ce;fill-opacity:1;fill-rule:nonzero;stroke:none;stroke-width:.0814508" transform="matrix(4.33119 0 0 -4.33119 275.882 223.783)"/></g><g style="stroke-width:.0814508"><path d="m0 0-.668 1.242-.801-.431-.81.244-.204-.68.47-.141.34-.102.431-.8z" style="fill:#a9d59a;fill-opacity:1;fill-rule:nonzero;stroke:none;stroke-width:.0814508" transform="matrix(4.33119 0 0 -4.33119 290.136 197.572)"/></g><g style="stroke-width:.0814508"><path d="m0 0-1.747.11-.11-1.747 1.747-.11z" style="fill:#62c0b4;fill-opacity:1;fill-rule:nonzero;stroke:none;stroke-width:.0814508" transform="matrix(4.33119 0 0 -4.33119 294.015 167.047)"/></g><g style="stroke-width:.0814508"><path d="m0 0 .359-.111.325 1.05.102.331.111.36-.298.092-1.442.445-.324-1.05.69-.213-.214-.691z" style="fill:#00b3ce;fill-opacity:1;fill-rule:nonzero;stroke:none;stroke-width:.0814508" transform="matrix(4.33119 0 0 -4.33119 41.942 223.783)"/></g><g style="stroke-width:.0814508"><path d="m0 0 .668 1.242.801-.431.81.244.204-.68-.47-.141-.34-.102-.431-.8Z" style="fill:#a9d59a;fill-opacity:1;fill-rule:nonzero;stroke:none;stroke-width:.0814508" transform="matrix(4.33119 0 0 -4.33119 27.687 197.572)"/></g><g style="stroke-width:.0814508"><path d="m0 0 1.747.11.11-1.747-1.747-.11Z" style="fill:#62c0b4;fill-opacity:1;fill-rule:nonzero;stroke:none;stroke-width:.0814508" transform="matrix(4.33119 0 0 -4.33119 23.809 167.047)"/></g></g></svg>