<svg xmlns="http://www.w3.org/2000/svg" xml:space="preserve" width="656.51892" height="141.28667" viewBox="0 0 656.51892 141.28667"><defs><clipPath id="a" clipPathUnits="userSpaceOnUse"><path d="M0 112h504V0H0Z"/></clipPath></defs><g clip-path="url(#a)" transform="matrix(1.33333 0 0 -1.33333 -5.786 145.286)"><path d="M0 0v10.896l-9.911 14.828h4.135l5.078-7.76a83.031 83.031 0 0 0 2.61-4.347 106.85 106.85 0 0 0 2.802 4.544l4.99 7.563h3.964L3.403 10.896V0Z" style="fill:#1d1d1b;fill-opacity:1;fill-rule:nonzero;stroke:none" transform="translate(136.44 17.802)"/><path d="M0 0v25.724h18.599v-3.038H3.395v-7.88h14.237V11.79H3.395V3.034h15.8V0Z" style="fill:#1d1d1b;fill-opacity:1;fill-rule:nonzero;stroke:none" transform="translate(151.072 17.802)"/><path d="M0 0h3.402v-14.862c0-2.582-.292-4.639-.879-6.156-.583-1.525-1.636-2.759-3.161-3.714-1.525-.951-3.53-1.43-6.016-1.43-2.406 0-4.378.419-5.902 1.249-1.536.827-2.631 2.031-3.284 3.601-.659 1.573-.983 3.725-.983 6.45V0h3.406v-14.848c0-2.23.202-3.876.617-4.932a4.734 4.734 0 0 1 2.15-2.449c1.009-.574 2.235-.861 3.706-.861 2.506 0 4.279.57 5.353 1.702C-.526-20.256 0-18.074 0-14.848z" style="fill:#1d1d1b;fill-opacity:1;fill-rule:nonzero;stroke:none" transform="translate(188.968 43.526)"/><path d="M0 0v25.724h3.489L16.995 5.529v20.195h3.266V0h-3.489L3.257 20.21V0Z" style="fill:#1d1d1b;fill-opacity:1;fill-rule:nonzero;stroke:none" transform="translate(195.13 17.802)"/><path d="M0 0v3.016l10.896.018v-9.54C9.22-7.843 7.501-8.843 5.716-9.518a15.387 15.387 0 0 0-5.472-1.008c-2.52 0-4.82.544-6.881 1.623-2.068 1.083-3.629 2.646-4.676 4.695-1.053 2.045-1.577 4.333-1.577 6.857 0 2.506.524 4.842 1.564 7.009 1.055 2.17 2.553 3.778 4.519 4.835 1.963 1.052 4.231 1.577 6.788 1.577 1.865 0 3.546-.302 5.052-.906 1.502-.6 2.67-1.438 3.527-2.517.862-1.072 1.498-2.476 1.957-4.208l-3.076-.842c-.381 1.31-.867 2.34-1.442 3.088-.57.747-1.383 1.347-2.457 1.799-1.063.45-2.238.676-3.542.676-1.549 0-2.893-.242-4.033-.709-1.135-.48-2.049-1.098-2.739-1.872a8.846 8.846 0 0 1-1.633-2.54c-.651-1.597-.979-3.321-.979-5.178 0-2.291.396-4.209 1.179-5.756.794-1.543 1.95-2.69 3.459-3.438A10.643 10.643 0 0 1 .055-7.454c1.47 0 2.91.283 4.318.853 1.401.566 2.464 1.174 3.189 1.815V0Z" style="fill:#1d1d1b;fill-opacity:1;fill-rule:nonzero;stroke:none" transform="translate(230.266 27.89)"/><path d="m0 0 3.07.423c.079-1.963.45-3.314 1.106-4.035.655-.724 1.559-1.087 2.721-1.087.851 0 1.585.193 2.208.585a3.09 3.09 0 0 1 1.283 1.6c.236.672.341 1.744.341 3.22v17.719h3.405V.895c0-2.152-.257-3.816-.77-4.998-.529-1.185-1.345-2.083-2.487-2.706-1.121-.615-2.446-.928-3.961-.928-2.257 0-3.991.649-5.189 1.947C.53-4.487-.04-2.563 0 0" style="fill:#1d1d1b;fill-opacity:1;fill-rule:nonzero;stroke:none" transform="translate(242.286 25.101)"/><path d="M259.696 43.526h3.398V17.802h-3.398z" style="fill:#1d1d1b;fill-opacity:1;fill-rule:nonzero;stroke:none"/><path d="M0 0v25.724h3.489L16.995 5.529v20.195h3.268V0h-3.491L3.267 20.21V0Z" style="fill:#1d1d1b;fill-opacity:1;fill-rule:nonzero;stroke:none" transform="translate(266.902 17.802)"/><path d="M0 0h3.396v-14.862c0-2.582-.284-4.639-.867-6.156-.591-1.525-1.64-2.759-3.175-3.714-1.526-.951-3.526-1.43-6.005-1.43-2.405 0-4.378.419-5.904 1.249-1.535.827-2.63 2.031-3.289 3.601-.658 1.573-.98 3.725-.98 6.45V0h3.404v-14.848c0-2.23.211-3.876.622-4.932.415-1.061 1.129-1.876 2.137-2.449 1.016-.574 2.249-.861 3.715-.861 2.499 0 4.286.57 5.353 1.702C-.534-20.256 0-18.074 0-14.848z" style="fill:#1d1d1b;fill-opacity:1;fill-rule:nonzero;stroke:none" transform="translate(319.741 43.526)"/><path d="M0 0v25.724h3.492L16.996 5.529v20.195h3.267V0h-3.49L3.257 20.21V0Z" style="fill:#1d1d1b;fill-opacity:1;fill-rule:nonzero;stroke:none" transform="translate(326.618 17.802)"/><path d="M351.738 43.526h3.404V17.802h-3.404z" style="fill:#1d1d1b;fill-opacity:1;fill-rule:nonzero;stroke:none"/><path d="m0 0-9.958 25.724h3.676L.405 7.039a65.958 65.958 0 0 0 1.352-4.212 53.28 53.28 0 0 0 1.39 4.212l6.945 18.685h3.473L3.49 0Z" style="fill:#1d1d1b;fill-opacity:1;fill-rule:nonzero;stroke:none" transform="translate(367.056 17.802)"/><path d="M0 0v25.724h18.597v-3.038H3.404v-7.88h14.227V11.79H3.404V3.034h15.789V0Z" style="fill:#1d1d1b;fill-opacity:1;fill-rule:nonzero;stroke:none" transform="translate(382.303 17.802)"/><path d="M0 0h7.312c1.555 0 2.778.162 3.644.483.884.321 1.552.834 2.012 1.547.445.706.681 1.472.681 2.306 0 1.216-.439 2.212-1.327 2.997-.886.785-2.279 1.177-4.179 1.177H0Zm-3.407-14.368v25.724h11.41c2.283 0 4.025-.234 5.222-.694 1.192-.461 2.149-1.28 2.862-2.45.718-1.17 1.068-2.464 1.068-3.876 0-1.83-.593-3.362-1.771-4.615-1.186-1.249-3.003-2.05-5.477-2.386.906-.43 1.587-.856 2.049-1.279 1.003-.913 1.942-2.053 2.829-3.419l4.482-7.005h-4.284l-3.412 5.352c-.99 1.543-1.803 2.724-2.447 3.543-.647.82-1.223 1.393-1.732 1.718a5.154 5.154 0 0 1-1.551.687c-.391.083-1.016.124-1.893.124H0v-11.424z" style="fill:#1d1d1b;fill-opacity:1;fill-rule:nonzero;stroke:none" transform="translate(407.496 32.17)"/><path d="m0 0 3.214.279c.149-1.283.508-2.343 1.06-3.166.551-.823 1.412-1.491 2.585-2.001 1.176-.506 2.49-.762 3.949-.762 1.301 0 2.445.196 3.437.581.993.385 1.731.917 2.224 1.589.48.672.722 1.404.722 2.2 0 .808-.234 1.51-.696 2.114-.467.6-1.242 1.105-2.317 1.513-.7.272-2.216.691-4.58 1.261-2.367.562-4.014 1.098-4.961 1.604-1.235.642-2.148 1.438-2.753 2.389a5.99 5.99 0 0 0-.901 3.208c0 1.295.371 2.506 1.103 3.634.739 1.133 1.816 1.989 3.228 2.574 1.425.585 2.997.876 4.727.876 1.9 0 3.574-.306 5.042-.921 1.453-.615 2.574-1.517 3.359-2.71.778-1.193 1.201-2.544 1.269-4.054l-3.269-.245c-.17 1.623-.766 2.857-1.783 3.684-1.01.834-2.509 1.246-4.482 1.246-2.061 0-3.559-.378-4.498-1.129-.941-.759-1.412-1.664-1.412-2.733 0-.92.336-1.683 1.005-2.279.648-.592 2.365-1.208 5.119-1.831 2.767-.63 4.666-1.173 5.7-1.641 1.499-.691 2.6-1.567 3.31-2.619C20.112 1.6 20.469.381 20.469-1c0-1.37-.391-2.657-1.176-3.869-.782-1.208-1.9-2.151-3.377-2.826-1.463-.669-3.108-1.008-4.946-1.008-2.338 0-4.284.343-5.852 1.015-1.576.683-2.81 1.702-3.704 3.064C.524-3.261.051-1.717 0 0" style="fill:#1d1d1b;fill-opacity:1;fill-rule:nonzero;stroke:none" transform="translate(425.23 26.067)"/><path d="M447.343 43.526h3.404V17.802h-3.404z" style="fill:#1d1d1b;fill-opacity:1;fill-rule:nonzero;stroke:none"/><path d="M0 0v22.686h-8.473v3.038h20.38v-3.038H3.393V0Z" style="fill:#1d1d1b;fill-opacity:1;fill-rule:nonzero;stroke:none" transform="translate(461.136 17.802)"/><path d="M0 0v10.896l-9.908 14.828h4.143l5.071-7.76a84.433 84.433 0 0 0 2.61-4.347 90.67 90.67 0 0 0 2.806 4.544l4.974 7.563h3.976L3.405 10.896V0Z" style="fill:#1d1d1b;fill-opacity:1;fill-rule:nonzero;stroke:none" transform="translate(483.057 17.802)"/><path d="M0 0c-29.268 0-52.977-23.728-52.977-52.977 0-29.268 23.709-52.988 52.977-52.988 29.259 0 52.984 23.72 52.984 52.988C52.984-23.728 29.259 0 0 0" style="fill:#007fa1;fill-opacity:1;fill-rule:nonzero;stroke:none" transform="translate(57.316 108.965)"/><path d="m0 0-8.682 1.566.323 1.751L.317 1.748zm-2.432-8.601-1.416.449.787 2.48-6.972 2.207.534 1.698 6.981-2.207.786 2.491 1.419-.45zm-1.44-3.103-4.042-.207 2.128-3.431-.954-1.807-3.01 5.257-3.276 1.732.838 1.559 3.273-1.732 6.017.464zm-10.189-9.525c-.834 0-1.513.69-1.513 1.528a1.52 1.52 0 1 0 3.04 0c0-.838-.679-1.528-1.527-1.528m-21.887 55.89c.751.777 1.798 1.415 2.808 1.94.889.381 2.544.966 3.147.449.888-.898.153-2.355-.39-3.136-.662-1.132-1.402-1.933-2.463-2.684-.301-.222-.611-.049-.802.166a18.633 18.633 0 0 1-2.319 2.612c-.196.155-.196.438.019.653m-12.711-63.782c-19.271 0-35.258 13.987-38.386 32.344l-.025.147c.764-1.14 3.763-2.415 5.135-2.027 3.876-9.204 12.453-6.076 14.709-4.264 2.834 2.17 2.553 3.023.512 1.517-8.707-5.586-13.187 2.646-13.041 5.634-9.651 3.699-6.947 14.84-5.63 18.558 5.343 15.123 19.765 25.965 36.726 25.965 13.402 0 25.215-6.774 32.23-17.081-2.955.317-5.498.362-8.937 0a1.839 1.839 0 0 1-1.37-1c-1.664-4.076.663-9.797.906-11.454 1.087-5.152 1.129-8.609-.483-12.825-2.068-5.246-6.876-7.231-12.06-7.635-2.006-2.604-4.101-4.827-6.989-6.102-.266-.087-.515-.17-.706.147-.129.355.509.49 1.115 1.181 2.178 2.291 3.651 5.344 5.135 9.737.928 3.102 1.492 6.605.345 12.386-.102.499-.208.74-.525.786-.534.023-.926-.536-1.243-3.114-.266-1.955-.661-3.849-1.706-5.499-.776-1.317-2.078-2.143-3.584-2.136-1.838-.007-2.879 1.416-3.894 2.714-1.329 1.491-2.492 2.181-5.122 2.2-.294.042-.277.283-.196.464.496.955 1.672 1.208 2.745 1.283 1.803-.007 3.288-.611 4.737-1.558 1.911-1.174 2.652-.706 3.633.162 1.009.974 1.318 2.276 1.509 3.604.355 2.974.612 6.103 3.155 7.737.64.381 1.527.389 2.335.166 1.587-.664 2.513-2.344 2.843-3.793 1.423-5.393.457-14.583-3.049-19.587 3.336.403 6.601 4.185 7.306 7.634.925 4.646.071 9.507-1.7 14.512-.505 1.174-.54 2.517-.394 3.619-.351-.257-.923-.456-1.229-.524-.349-.053-.687.113-.883.43-.128.37.055.864.423 1.068 2.251 1.182 5.414 3.94 6.635 6.352.519 1.132 1.104 3.087 1.043 4.45-.033.879-.432 2.162-1.068 2.687-1.749 1.32-5.6-.37-6.678-.827-2.093-1.019-5.335-3.016-6.014-3.438-1.362-.804-18.806-.879-20.17-9.318 3.483.94 8.078 1.449 12.49 1.407 1.039.023.37-.509-1.042-1.147-.94-.449-6.748-3.068-8.144-4.042-.531-.328-3.389 1.102-4.237 3.438-.462-.128-11.184-2.94-17.27-8.257-1.189-1.249-.988-3.137-.481-3.05.953.053 3.55 1.948 4.269-.189.314-.939 1.264-5.076-1.148-7.989.496-2.129 6.352-7.971 7.773-7.042 1.036.724 1.011 1.502.868 2.773-.685 4.975 13.645 7.809 17.567-1.827.973.563 1.637 1.658 2.343 2.646.475.819.838.804.685-.887-.183-2.947-8.133-13.167-17.042-4.257-.638.612-1.459.087-.108-2.827-.875 0-1.53-.223-.53-2.86 1.268-3.533 8.222-8.643 9.507-6.68.202.241 6.231 4.215 11.945 2.2 3.808-1.397 15.823 1.283 22.018 17.647.474 1.872 1.355 2.767 1.132.355-.475-5.016-3.787-15.047-14.8-20.882 1.01-.362 3.991-1.921 4.49-2.343 10.212 3.875 21.006 21.613 17.67 38.601-1.425 7.291.887 1.181.887 1.181 1.294-3.879 2-8.024 2-12.334 0-21.504-17.436-38.937-38.937-38.937m5.55-11.126v6.393h-2.227v-6.393h-2.24v6.393h-2.259v-6.393h-2.23v6.393h-2.232v-6.393h-2.224l.018 5.997a2.21 2.21 0 0 0 2.215 2.208l4.453.008v1.879h2.259v-1.879l4.467-.008a2.214 2.214 0 0 0 2.213-2.208l.006-5.997zm-40.343 19.018c-.848 0-1.523.69-1.523 1.528a1.52 1.52 0 0 0 1.523 1.525 1.528 1.528 0 0 0 0-3.053m-4.216 9.359-2.989-5.238-.974 1.845 2.102 3.465-4.034.162-.955 1.812 6.029-.475 3.272 1.732.832-1.57zM-97.407-.457l1.432.404 1.284-4.574 1.871.524-1.181 4.258 1.423.396 1.194-4.257 2.312.645-1.328 4.74 1.432.404 1.802-6.454-8.48-2.377zm-.757 5.548 4.767.28c.757.041 1.24.094 1.457.143.364.094.638.294.843.596.206.302.285.698.264 1.189-.034.51-.162.879-.375 1.128a1.26 1.26 0 0 1-.794.416c-.299.033-.805.033-1.503-.008l-4.859-.279-.094 1.777 4.62.268c1.054.061 1.801.049 2.241-.018a2.465 2.465 0 0 0 1.129-.465 2.73 2.73 0 0 0 .783-1c.19-.423.319-.981.362-1.68.034-.837-.017-1.482-.189-1.924-.166-.446-.396-.8-.696-1.068a2.314 2.314 0 0 0-.94-.559c-.501-.139-1.241-.241-2.223-.302l-4.691-.268zm.242 11.352 6.42 2.552-5.811 1 .295 1.627 8.678-1.499-.311-1.766-6.264-2.51 5.66-.981-.281-1.63-8.688 1.502zm3.609 13.289c.44 1 .984 1.691 1.656 2.076.655.381 1.402.494 2.215.328l-.404-1.747a1.853 1.853 0 0 1-1.213-.234c-.364-.216-.649-.559-.847-1.034-.321-.706-.336-1.371-.069-1.993.274-.611.852-1.117 1.741-1.498.954-.423 1.773-.517 2.438-.302.664.226 1.145.672 1.449 1.37.147.336.222.717.241 1.113.016.404-.019.766-.105 1.095l-1.023.448-.811-1.871-1.372.585 1.526 3.525 3.223-1.397c.18-.49.261-1.109.234-1.868a5.87 5.87 0 0 0-.475-2.128c-.37-.853-.861-1.51-1.491-1.982a3.741 3.741 0 0 0-2.136-.759 5.308 5.308 0 0 0-2.355.457c-.853.362-1.519.861-2.021 1.499a3.832 3.832 0 0 0-.821 2.208c-.053.637.087 1.335.42 2.109m6.507 10.696 4.554-3.223c.585-.423 1.017-.8 1.256-1.129.319-.441.47-.932.465-1.483-.008-.543-.231-1.121-.653-1.732-.504-.706-1.089-1.113-1.761-1.208-.672-.102-1.389.113-2.155.657l.813 1.483c.419-.275.757-.423.997-.441.373-.027.664.12.896.441.236.325.304.619.209.887-.088.257-.42.604-1 1.008l-4.646 3.291zm3.561 3.982 6.412-6.032-1.225-1.301-6.41 6.038zm3.938 3.664 6.446-2.491-3.577 4.668 1.311 1.008 5.352-6.997-1.413-1.087-6.316 2.416 3.498-4.567-1.321-1.011-5.35 7.008zm17.814 8.152c.406.544.628 1.11.689 1.698l1.355.378 2.419-8.85-1.697-.457-1.73 6.359a6.049 6.049 0 0 0-1.831-1.868l-.419 1.525c.404.268.808.672 1.214 1.215m7.229 2.215c.5.612 1.172.948 2.019 1.023.921.087 1.704-.203 2.369-.868.647-.664 1.041-1.811 1.19-3.45.147-1.66-.054-2.886-.604-3.679-.549-.785-1.335-1.223-2.319-1.31-.705-.06-1.3.08-1.766.416-.474.336-.808.879-.991 1.618l1.672.336c.068-.336.2-.585.389-.732.189-.154.423-.215.706-.189.362.035.657.223.879.578.223.351.307 1.061.295 2.102-.389-.543-.914-.853-1.578-.906-.706-.067-1.355.155-1.923.664-.56.51-.898 1.197-.966 2.088-.085.921.128 1.694.628 2.309m8.216 1.144 5.944-.559-.111-1.256c-.536-.442-1.104-1.087-1.689-1.952a12.114 12.114 0 0 1-1.432-2.781c-.36-.993-.576-1.887-.643-2.698l-1.691.162c.152 1.253.524 2.51 1.14 3.767a12.951 12.951 0 0 0 2.288 3.328l-3.972.37zm8.462-2.672.43 1.57 5.765-1.619-.343-1.226c-.602-.337-1.274-.861-2.017-1.601a12.373 12.373 0 0 1-1.903-2.475c-.535-.914-.906-1.755-1.121-2.533l-1.628.457c.36 1.207.966 2.369 1.797 3.498a12.797 12.797 0 0 0 2.847 2.861zm12.032-10.477c.198.472.583 1.117 1.157 1.921l2.739 3.808 1.45-1.026-2.78-3.876c-.457-.623-.721-1.034-.808-1.242a1.472 1.472 0 0 1-.081-1.015c.125-.347.372-.665.77-.959.419-.294.783-.43 1.119-.415.33.019.604.139.817.355.217.207.53.604.933 1.174l2.834 3.955 1.449-1.034-2.697-3.759c-.603-.861-1.087-1.438-1.424-1.74-.334-.302-.687-.502-1.067-.585-.39-.098-.818-.087-1.256.015-.466.106-.974.362-1.546.766-.677.494-1.134.94-1.375 1.355-.242.415-.382.819-.397 1.215-.028.397.023.759.163 1.087m12.562-1.147-1.772-6.662 4.264 4.05 1.129-1.196-6.375-6.069-1.233 1.295 1.717 6.529-4.163-3.956-1.142 1.2 6.386 6.066zm5.985-7.103-7.127-5.17-1.048 1.438 7.132 5.174zm1.548-2.276-4.591-5.136 6.74 1.313.929-1.638-9.228-1.57-.934 1.653 6.138 7.062zm5.614-12.477-1.405-.509-1.611 4.472-1.838-.664 1.5-4.152-1.392-.509-1.506 4.162-2.257-.818 1.672-4.627-1.395-.502-2.276 6.302 8.285 2.989zm1.241-6.257c.144-.921.168-1.612.083-2.061A2.07 2.07 0 0 0-.2 13.979a2.486 2.486 0 0 0-1.31-.596c-.656-.102-1.222.008-1.705.321-.491.317-.844.853-1.082 1.6-.162-.411-.349-.766-.583-1.057-.224-.287-.64-.691-1.257-1.215l-1.525-1.329-.328 2.103 1.697 1.558c.602.563.983.932 1.128 1.133.149.188.251.384.285.585.032.196.019.49-.034.894l-.062.362-3.638-.566-.274 1.755 8.712 1.355zm.672-9.447C1.013 6.635.732 5.808.223 5.272c-.51-.532-1.163-.8-1.976-.793v1.778c.449.061.795.208.996.446.214.241.334.615.349 1.113.019.517-.068.932-.267 1.234a.645.645 0 0 1-.534.302c-.207.007-.387-.072-.55-.242-.19-.218-.417-.751-.657-1.611-.241-.857-.482-1.483-.713-1.891a2.437 2.437 0 0 0-.941-.928c-.389-.216-.863-.31-1.414-.295a2.566 2.566 0 0 0-1.394.484 2.588 2.588 0 0 0-.942 1.234c-.187.517-.264 1.162-.23 1.928.043 1.114.343 1.955.885 2.525.538.577 1.296.906 2.285.974l.096-1.733c-.587-.075-1.017-.275-1.303-.577-.284-.309-.44-.732-.467-1.276-.024-.566.081-1.007.304-1.309.234-.302.51-.457.838-.465a.717.717 0 0 1 .532.155c.155.121.293.317.417.619.074.208.227.683.436 1.408.289.947.604 1.6.966 1.974.51.517 1.112.758 1.8.732a2.196 2.196 0 0 0 1.24-.442c.393-.267.667-.645.846-1.128.188-.491.27-1.076.243-1.759M-48.68 61.378c-28.481 0-51.578-23.086-51.578-51.569 0-28.487 23.097-51.573 51.578-51.573 28.477 0 51.575 23.086 51.575 51.573 0 28.483-23.098 51.569-51.575 51.569m-4.134-6.695c.343.026.606.188.809.475.204.283.291.679.251 1.196-.06.559-.213.982-.509 1.276-.278.283-.593.415-.94.389a1.043 1.043 0 0 1-.766-.457c-.191-.275-.257-.698-.208-1.275.051-.589.2-1.008.457-1.268a1.14 1.14 0 0 1 .906-.336m49.78-38.998a.918.918 0 0 1 .449-.43c.187-.094.419-.121.67-.08.29.046.526.155.679.348.158.177.243.419.243.713 0 .147-.062.577-.183 1.283l-.205 1.37-2.206-.336.206-1.298c.131-.845.239-1.362.347-1.57" style="fill:#fff;fill-opacity:1;fill-rule:nonzero;stroke:none" transform="translate(106.01 46.24)"/><path d="M0 0h37.982v4.283H2.168v11.175h-8.62l.006-9.039C-6.446 2.868-3.547 0 0 0" style="fill:#1d1d1b;fill-opacity:1;fill-rule:nonzero;stroke:none" transform="translate(242.226 51.89)"/><path d="m0 0-.042 4.012h11.445v4.261h-31.377V4.012h11.401V0c0-7.027-5.698-12.726-12.732-12.726v-4.295c6.949 0 13.095 2.653 16.961 6.684 3.872-4.088 10.068-6.684 17.065-6.684v4.295C5.699-12.726 0-7.027 0 0" style="fill:#1d1d1b;fill-opacity:1;fill-rule:nonzero;stroke:none" transform="translate(254.19 87.577)"/><path d="M0 0h-8.541v-33.62l6.712-.004c1.001 0 1.829.819 1.829 1.831z" style="fill:#1d1d1b;fill-opacity:1;fill-rule:nonzero;stroke:none" transform="translate(226.622 96.937)"/><path d="M0 0h-46.01v-4.257h37.531v-6.824l6.654-.003c1.006 0 1.838.826 1.838 1.834z" style="fill:#1d1d1b;fill-opacity:1;fill-rule:nonzero;stroke:none" transform="translate(440.214 62.981)"/><path d="M0 0h37.982v4.283H2.161v11.175H-6.44V6.419C-6.44 2.868-3.551 0 0 0" style="fill:#1d1d1b;fill-opacity:1;fill-rule:nonzero;stroke:none" transform="translate(188.632 51.89)"/><path d="m0 0-.034 4.265h-35.75v9.748h-8.635l.034-7.578C-44.385 2.887-41.5 0-37.954 0Z" style="fill:#1d1d1b;fill-opacity:1;fill-rule:nonzero;stroke:none" transform="translate(332.66 51.855)"/><path d="M0 0h-8.523v-15.693h-4.841V0h-8.526v-36.843h-15.423V-5.31h11.132v4.223h-19.808l.02-33.57c0-3.548 2.886-6.443 6.439-6.443h17.64v-3.872l6.705-.007c1 0 1.829.818 1.829 1.83v23.191h4.833v-25.014l6.695-.007c1.007 0 1.838.818 1.838 1.83z" style="fill:#1d1d1b;fill-opacity:1;fill-rule:nonzero;stroke:none" transform="translate(386.843 96.937)"/><path d="M0 0h-4.815v11.308h-8.534v-31.465h6.703a1.83 1.83 0 0 1 1.831 1.826v14.074H0Z" style="fill:#1d1d1b;fill-opacity:1;fill-rule:nonzero;stroke:none" transform="translate(445.07 85.63)"/><path d="M0 0h-48.176v-4.265h19.812v-9.673l6.681-.004a1.83 1.83 0 0 1 1.826 1.831l-.027 7.846H0Z" style="fill:#1d1d1b;fill-opacity:1;fill-rule:nonzero;stroke:none" transform="translate(334.565 73.738)"/><path d="M0 0h-8.52v-11.308h-10.173v-4.256H-8.52V-33.62l6.703-.004c1 0 1.824.819 1.824 1.831z" style="fill:#1d1d1b;fill-opacity:1;fill-rule:nonzero;stroke:none" transform="translate(280.242 96.937)"/><path d="M0 0h-7.938a9.41 9.41 0 0 1 .639 3.367 9.433 9.433 0 0 1-.593 3.245H0Zm-13.96-26.358c-7.629 0-13.815 2.717-13.815 6.065 0 3.347 6.186 6.057 13.815 6.057 7.627 0 13.798-2.71 13.798-6.057 0-3.348-6.171-6.065-13.798-6.065M-24.241-4.956a8.323 8.323 0 0 0-8.327 8.323c0 4.604 3.723 8.336 8.327 8.336 4.594 0 8.324-3.732 8.324-8.336 0-4.594-3.73-8.323-8.324-8.323m27.896-8.997 3.059-.007c1.006 0 1.838.822 1.838 1.834l-.019 28.121H0v-5.122h-10.703c-3.095 3.046-7.997 5.016-13.538 5.016-9.362 0-16.946-5.601-16.946-12.522 0-6.911 7.584-12.515 16.946-12.515 5.467 0 10.307 1.917 13.402 4.879H0v-8.042c-3.834 1.373-8.676 2.2-13.96 2.2-12.443 0-22.526-4.559-22.526-10.182 0-5.624 10.083-10.186 22.526-10.186 12.434 0 22.518 4.562 22.518 10.186 0 2.4-1.834 4.597-4.903 6.34" style="fill:#1d1d1b;fill-opacity:1;fill-rule:nonzero;stroke:none" transform="translate(164.844 80.942)"/><path d="M422.437 96.91h-23.146v-4.257h23.146zM427.78 90.23h-34.693v-4.257h34.693Z" style="fill:#1d1d1b;fill-opacity:1;fill-rule:nonzero;stroke:none"/><path d="M0 0c-4.92 0-8.901 2.023-8.901 4.521C-8.901 7.02-4.92 9.046 0 9.046c4.915 0 8.896-2.026 8.896-4.525C8.896 2.023 4.915 0 0 0m0 13.273c-9.67 0-17.501-3.917-17.501-8.752C-17.501-.313-9.67-4.231 0-4.231c9.669 0 17.508 3.918 17.508 8.752 0 4.835-7.839 8.752-17.508 8.752" style="fill:#1d1d1b;fill-opacity:1;fill-rule:nonzero;stroke:none" transform="translate(410.75 70.835)"/><path d="m0 0-.047 4.012h11.456v4.261h-31.391V4.012H-8.58V0c0-7.027-5.703-12.726-12.719-12.726v-4.295c6.939 0 13.083 2.653 16.963 6.684 3.866-4.088 10.056-6.684 17.062-6.684v4.295C5.703-12.726 0-7.027 0 0" style="fill:#1d1d1b;fill-opacity:1;fill-rule:nonzero;stroke:none" transform="translate(200.596 87.577)"/><path d="M296.782 91.555h27.311V81.244h-27.311zm33.982-14.534c1.007 0 1.862.781 1.862 1.793v17.04l-44.46.03.009-12.417c0-3.544 2.891-6.465 6.446-6.465l36.143.019" style="fill:#1d1d1b;fill-opacity:1;fill-rule:nonzero;stroke:none"/><path d="M0 0h6.643c1.01 0 1.834.838 1.834 1.838V31.4h-45.328v-4.26H0Zm-6.705-5.634v22.24h-8.455v-22.24h-7.353v22.24h-8.459v-22.24h-7.239v-4.258H9.966v4.258z" style="fill:#1d1d1b;fill-opacity:1;fill-rule:nonzero;stroke:none" transform="translate(485.333 64.427)"/></g></svg>